<svg width="250" height="450" viewBox="0 0 250 450" xmlns="http://www.w3.org/2000/svg">
  <!-- Градиенты -->
  <defs>
    <linearGradient id="rodGrad" x1="0%" y1="0%" x2="100%" y2="0%">
      <stop offset="0%" style="stop-color:#707880;stop-opacity:1" />
      <stop offset="50%" style="stop-color:#d0d8e0;stop-opacity:1" />
      <stop offset="100%" style="stop-color:#808890;stop-opacity:1" />
    </linearGradient>
    
    <linearGradient id="disk10Grad" x1="0%" y1="0%" x2="100%" y2="0%">
      <stop offset="0%" style="stop-color:#808890;stop-opacity:1" />
      <stop offset="50%" style="stop-color:#c0c8d0;stop-opacity:1" />
      <stop offset="100%" style="stop-color:#909098;stop-opacity:1" />
    </linearGradient>
    
    <linearGradient id="disk20Grad" x1="0%" y1="0%" x2="100%" y2="0%">
      <stop offset="0%" style="stop-color:#707880;stop-opacity:1" />
      <stop offset="50%" style="stop-color:#b8c0c8;stop-opacity:1" />
      <stop offset="100%" style="stop-color:#808890;stop-opacity:1" />
    </linearGradient>
    
    <linearGradient id="disk50Grad" x1="0%" y1="0%" x2="100%" y2="0%">
      <stop offset="0%" style="stop-color:#606870;stop-opacity:1" />
      <stop offset="50%" style="stop-color:#b0b8c0;stop-opacity:1" />
      <stop offset="100%" style="stop-color:#707880;stop-opacity:1" />
    </linearGradient>
  </defs>
  
  <!-- Основная сборка -->
  <g transform="translate(75, 30)">
    
    <!-- КРЮЧОК -->
    <g id="hook">
      <path d="M 50 15 Q 35 15 35 30 Q 35 38 40 43 L 40 55 L 50 55" 
            fill="none" stroke="#a0a8b0" stroke-width="7" stroke-linecap="round"/>
      <path d="M 50 15 Q 65 15 65 30 Q 65 38 60 43 L 60 55 L 50 55" 
            fill="none" stroke="#a0a8b0" stroke-width="7" stroke-linecap="round"/>
      <rect x="46" y="53" width="8" height="15" fill="#b0b8c0"/>
    </g>
    
    <!-- СТЕРЖЕНЬ (от крючка до дисков) -->
    <rect x="46" y="68" width="8" height="170" fill="url(#rodGrad)"/>
    <rect x="47" y="68" width="2" height="170" fill="rgba(255,255,255,0.3)"/>
    
    <!-- ДИСК 10г (самый маленький, сверху) -->
    <g id="disk-10g">
      <rect x="20" y="238" width="60" height="12" fill="url(#disk10Grad)" 
            stroke="#606870" stroke-width="0.8" rx="1"/>
      <rect x="22" y="238" width="56" height="1" fill="rgba(255,255,255,0.4)"/>
      <rect x="22" y="249" width="56" height="1" fill="rgba(0,0,0,0.3)"/>
      <rect x="21" y="239" width="3" height="10" fill="rgba(255,255,255,0.25)"/>
      <rect x="48" y="238" width="4" height="12" fill="#000" opacity="0.5"/>
      <line x1="48" y1="238" x2="48" y2="250" stroke="#000" stroke-width="0.8"/>
      <line x1="52" y1="238" x2="52" y2="250" stroke="#000" stroke-width="0.8"/>
    </g>
    
    <!-- ДИСК 20г (средний) -->
    <g id="disk-20g">
      <rect x="10" y="250" width="80" height="14" fill="url(#disk20Grad)" 
            stroke="#505860" stroke-width="0.9" rx="1"/>
      <rect x="12" y="250" width="76" height="1.2" fill="rgba(255,255,255,0.4)"/>
      <rect x="12" y="262.8" width="76" height="1.2" fill="rgba(0,0,0,0.3)"/>
      <rect x="11" y="251" width="4" height="12" fill="rgba(255,255,255,0.25)"/>
      <rect x="48" y="250" width="4" height="14" fill="#000" opacity="0.5"/>
      <line x1="48" y1="250" x2="48" y2="264" stroke="#000" stroke-width="0.9"/>
      <line x1="52" y1="250" x2="52" y2="264" stroke="#000" stroke-width="0.9"/>
    </g>
    
    <!-- ДИСК 50г (самый большой, на опоре) -->
    <g id="disk-50g">
      <rect x="0" y="264" width="100" height="18" fill="url(#disk50Grad)" 
            stroke="#404850" stroke-width="1" rx="1"/>
      <rect x="2" y="264" width="96" height="1.5" fill="rgba(255,255,255,0.4)"/>
      <rect x="2" y="280.5" width="96" height="1.5" fill="rgba(0,0,0,0.3)"/>
      <rect x="1" y="265" width="5" height="16" fill="rgba(255,255,255,0.25)"/>
      <rect x="48" y="264" width="4" height="18" fill="#000" opacity="0.5"/>
      <line x1="48" y1="264" x2="48" y2="282" stroke="#000" stroke-width="1"/>
      <line x1="52" y1="264" x2="52" y2="282" stroke="#000" stroke-width="1"/>
    </g>
    
    <!-- ОПОРНОЕ КОЛЬЦО (у основания - диски лежат сверху) -->
    <g id="support-ring">
      <ellipse cx="50" cy="287" rx="18" ry="4" fill="#505860" opacity="0.4"/>
      <ellipse cx="50" cy="285" rx="18" ry="3.5" fill="#808890"/>
      <ellipse cx="50" cy="283" rx="18" ry="3" fill="#b0b8c0" stroke="#707880" stroke-width="0.8"/>
      <ellipse cx="50" cy="282" rx="17" ry="2.8" fill="#d8e0e8"/>
      <ellipse cx="43" cy="281.5" rx="7" ry="1.5" fill="rgba(255,255,255,0.5)"/>
    </g>
    
    <!-- РЕЗЬБА (под опорой) -->
    <rect x="46" y="287" width="8" height="40" fill="#909098"/>
    <g opacity="0.25">
      <line x1="46" y1="292" x2="54" y2="292" stroke="#000" stroke-width="0.6"/>
      <line x1="46" y1="298" x2="54" y2="298" stroke="#000" stroke-width="0.6"/>
      <line x1="46" y1="304" x2="54" y2="304" stroke="#000" stroke-width="0.6"/>
      <line x1="46" y1="310" x2="54" y2="310" stroke="#000" stroke-width="0.6"/>
      <line x1="46" y1="316" x2="54" y2="316" stroke="#000" stroke-width="0.6"/>
      <line x1="46" y1="322" x2="54" y2="322" stroke="#000" stroke-width="0.6"/>
    </g>
    
    <!-- ГАЙКА -->
    <g id="nut">
      <polygon points="50,327 58,331 58,341 50,345 42,341 42,331" 
               fill="#808890" stroke="#505860" stroke-width="1"/>
      <line x1="42" y1="331" x2="50" y2="327" stroke="#606868" stroke-width="0.6"/>
      <line x1="58" y1="331" x2="50" y2="327" stroke="#606868" stroke-width="0.6"/>
      <polygon points="45,332 48,331 48,340 45,339" fill="rgba(255,255,255,0.3)"/>
    </g>
    
  </g>
</svg>
